<svg height="128" viewBox="0 0 128 128" width="128" xmlns="http://www.w3.org/2000/svg"><g fill="none" fill-rule="evenodd"><path d="m0 0h128v128h-128z" fill="#80ac8a"/><g fill="#fefaec" fill-rule="nonzero" transform="translate(14 44)"><path d="m21.0991189.01762115h-3.9845815v12.60792955c-1.777533-1.4008811-4.0176211-2.2400881-6.4559471-2.2400881-5.76651982 0-10.44052863 4.6740088-10.44052863 10.4405286s4.67400881 10.4405286 10.44052863 10.4405286c5.6519824 0 10.2511013-4.4911894 10.4317181-10.0969163zm-10.4537445 27.31497795c-3.58590303 0-6.49118938-2.9052863-6.49118938-6.4911894s2.90748899-6.4911894 6.49118938-6.4911894c3.5837005 0 6.4911895 2.9052863 6.4911895 6.4911894s-2.907489 6.4911894-6.4911895 6.4911894"/><path d="m45.0154185 20.2973568c-.1806167-5.6079295-4.7819383-10.0969163-10.4317181-10.0969163-5.7665198 0-10.4405286 4.6740088-10.4405286 10.4405287 0 5.7665198 4.6740088 10.4405286 10.4405286 10.4405286 2.438326 0 4.6806168-.8392071 6.4559472-2.2400881v2.6960352h3.9823788zm-3.9537445.3303965c0 3.5859031-2.907489 6.4911894-6.4911894 6.4911894-3.5859031 0-6.4911894-2.907489-6.4911894-6.4911894 0-3.5859031 2.9074889-6.4911894 6.4911894-6.4911894 3.5837004 0 6.4911894 2.9052863 6.4911894 6.4911894"/><path d="m52.030837 20.6277533c0-3.5859031 2.9052863-6.4911894 6.4911894-6.4911894 2.8017621 0 5.1894273 1.7753304 6.099119 4.2643172l3.6585903-1.4405287c-1.4889868-3.9493392-5.3017621-6.7599119-9.7709251-6.7599119-5.6519824 0-10.2511013 4.4911895-10.4317181 10.0969163l-.0088106 11.2422908h3.9823789s-.0198238-10.0176212-.0198238-10.9118943"/><path d="m95.9493392 31.5396476-.0638766-21.0704846 3.9845815-.0110132v21.0704846z"/><path d="m71.969163 21.1718062c.1806167 5.6079295 4.7819383 10.0969163 10.4317181 10.0969163 5.7665198 0 10.4405286-4.6740088 10.4405286-10.4405287 0-5.7665198-4.6740088-10.4405286-10.4405286-10.4405286-2.438326 0-4.6806168.839207-6.4559472 2.2400881v-12.60792951h-3.9845815zm3.9537445-.3303965c0-3.5859031 2.9052863-6.4911894 6.4911894-6.4911894s6.4911894 2.907489 6.4911894 6.4911894c0 3.5859031-2.9052863 6.4911894-6.4911894 6.4911894-3.5837004 0-6.4911894-2.9052863-6.4911894-6.4911894"/></g></g></svg>